<svg width="61" height="68" viewBox="0 0 61 68" fill="none" xmlns="http://www.w3.org/2000/svg">
<path d="M15.3039 14.4417L3.44873 52.3781L13 61L23.1713 52.3781L24.6802 49.6838H36.212L37.5053 52.3781L47.5 61L57.5512 52.3781L45.265 14.4417L30.5 6.5L15.3039 14.4417Z" fill="#E75400"/>
<rect y="52.1625" width="25.2191" height="15.3039" fill="#E75400"/>
<rect x="12.5018" width="35.7809" height="14.6572" fill="#E75400"/>
<rect x="35.7809" y="52.1625" width="25.2191" height="15.3039" fill="#E75400"/>
<path d="M21.6791 31.901C24.0796 34.0178 25.3413 35.3025 29.3311 35.5654L29.7622 35.8887C27.914 37.4667 26.9042 37.9591 25.1279 38.4752C22.0037 38.7284 21.066 38.6674 19.7392 38.4752C19.9084 40.2106 20.2967 41.0513 21.8947 42.1396C22.9939 43.0639 23.5783 43.619 25.6668 43.4328C26.2342 44.0702 26.5982 44.2423 27.2834 44.4028V43.7562C27.8149 44.1617 28.1419 44.3144 28.7922 44.4028C28.3528 42.8146 28.5638 41.9179 29.4388 40.3074C31.2487 40.4918 32.2244 40.8463 34.0731 40.3074C36.533 39.0883 37.5053 38.1519 38.4918 35.9965C39.3374 33.1943 39.5012 32.0012 41.1862 31.4699C40.7112 32.7064 40.6286 33.3289 40.6473 34.3798H41.4017C41.3979 32.3727 41.8751 31.386 43.1261 29.7456C44.0666 30.9671 44.9307 31.1801 47.006 30.8233C46.2447 29.5628 45.5774 29.1567 43.7728 29.2067L44.8505 28.4523C46.7549 29.6438 47.6982 29.9104 48.9459 28.9911C48.7038 28.2778 48.1216 27.9812 46.1438 27.6979L49.5926 27.3745L48.9459 25.5424C47.8965 26.0199 47.3558 26.4231 46.4671 27.3745L44.635 28.129C45.5624 27.0602 45.5353 26.444 44.635 25.3268C42.9542 26.5356 42.9017 27.3111 43.5572 28.7756C42.6283 29.3683 42.2625 29.7473 41.8328 30.5H40.6473C40.3359 29.0653 39.404 28.948 36.8752 29.53C38.7149 26.3627 38.495 24.5407 36.5519 21.2314C34.4001 18.9746 33.7529 17.4939 33.1032 14.6572C31.1803 15.772 30.7209 16.8462 30.6244 19.2915L29.7622 18.106C28.9309 19.5781 29.1028 20.4039 29.8699 21.8781L28.7922 21.2314C28.5728 22.4011 28.8063 23.0059 29.5466 24.0336L28.7922 23.818L29.7622 25.6502C24.9072 23.7166 22.6329 21.8388 19.6314 16.5972C18.7203 18.8881 18.5039 20.1278 18.9848 22.2014L18.3381 21.8781C18.243 23.6306 18.5273 24.5616 19.9547 26.0813H18.9848C19.3644 27.2597 19.8617 27.8623 21.0325 28.8834H20.1703C21.1393 30.2478 21.762 30.9245 23.0802 31.901H21.6791Z" fill="black" stroke="black" stroke-width="0.5"/>
</svg>
