<svg width="33" height="30" viewBox="0 0 33 30" fill="none" xmlns="http://www.w3.org/2000/svg">
<path d="M3.35759 17.2438C5.75807 19.3606 7.01981 20.6453 11.0095 20.9081L11.4406 21.2314C9.59242 22.8095 8.5827 23.3018 6.80636 23.818C3.68214 24.0711 2.74447 24.0102 1.41767 23.818C1.58688 25.5534 1.97517 26.3941 3.57314 27.4823C4.67235 28.4067 5.25674 28.9618 7.34523 28.7756C7.9127 29.4129 8.27668 29.5851 8.96184 29.7456V29.0989C9.49337 29.5044 9.82036 29.6572 10.4707 29.7456C10.0313 28.1574 10.2423 27.2606 11.1173 25.6502C12.9271 25.8346 13.9028 26.189 15.7516 25.6502C18.2114 24.4311 19.1837 23.4947 20.1703 21.3392C21.0159 18.5371 21.1797 17.344 22.8647 16.8127C22.3896 18.0492 22.3071 18.6717 22.3258 19.7226H23.0802C23.0764 17.7155 23.5536 16.7287 24.8046 15.0883C25.7451 16.3099 26.6092 16.5229 28.6845 16.1661C27.9232 14.9056 27.2559 14.4995 25.4512 14.5495L26.529 13.7951C28.4334 14.9865 29.3766 15.2532 30.6244 14.3339C30.3823 13.6206 29.8 13.324 27.8223 13.0406C27.8223 13.0406 30.3381 13.3553 31.271 12.7173C32.204 12.0794 32.2074 11.7448 32.5 11C32.5 11 31.6738 10.4077 30.6244 10.8852C29.575 11.3627 29.0342 11.7659 28.1456 12.7173L26.3134 13.4717C27.2408 12.4029 27.2138 11.7868 26.3134 10.6696C24.6327 11.8784 24.5802 12.6539 25.2357 14.1184C24.3067 14.711 23.941 15.0901 23.5113 15.8428H22.3258C22.0144 14.408 21.0825 14.2908 18.5537 14.8728C20.3933 11.7054 20.1734 9.88345 18.2304 6.57421C16.0785 4.31735 15.4313 2.83663 14.7816 0C12.8588 1.11478 12.3994 2.18899 12.3028 4.63428L11.4406 3.44876C10.6093 4.92092 10.7812 5.74672 11.5484 7.22085L10.4707 6.57421C10.2512 7.74389 10.4848 8.34867 11.2251 9.37633L10.4707 9.16078L11.4406 10.9929C6.58566 9.05941 4.31136 7.1816 1.30989 1.93993C0.398815 4.2309 0.182408 5.47056 0.663248 7.54417L0.0166052 7.22085C-0.0785017 8.97333 0.20581 9.90439 1.63321 11.424H0.663248C1.04287 12.6025 1.54021 13.2051 2.71095 14.2261H1.84876C2.81777 15.5905 3.4405 16.2673 4.75865 17.2438H3.35759Z" fill="#F5F5F5"/>
</svg>
