<svg width="484" height="512" viewBox="0 0 484 512" fill="none" xmlns="http://www.w3.org/2000/svg">
<path d="M480.258 166.12C475.955 154.625 470.803 143.596 464.895 132.94C464.893 132.936 464.89 132.932 464.888 132.927L460.214 124.872C460.212 124.869 460.21 124.865 460.208 124.862C453.65 113.933 446.295 103.597 438.244 93.8564C432.765 87.2642 423.618 84.9001 415.355 87.5294L415.354 87.5296L359.654 105.23L358.907 105.467L358.286 104.989C344.989 94.7684 330.304 86.2356 314.629 79.7872L313.903 79.4883L313.735 78.7208L301.235 21.622L480.258 166.12ZM480.258 166.12L480.161 166.218L480.492 167.118C483.467 175.205 480.97 184.268 474.497 190.084L474.49 190.091L431.19 229.491L430.61 230.019L430.713 230.797C431.805 239.035 432.4 247.47 432.4 256C432.4 264.53 431.805 272.965 430.713 281.203L430.61 281.981L431.19 282.509L474.49 321.909L474.497 321.916C480.969 327.731 483.466 336.793 480.493 344.88C476.123 356.7 470.857 368.027 464.795 378.96C464.793 378.965 464.79 378.969 464.788 378.973L460.114 387.028C460.112 387.031 460.11 387.035 460.108 387.038C453.549 397.968 446.195 408.303 438.144 418.044L438.14 418.049C432.668 424.726 423.53 427.004 415.255 424.371L415.254 424.37L359.554 406.67L358.807 406.433L358.186 406.911C344.889 417.132 330.204 425.664 314.529 432.113L313.803 432.412L313.635 433.179L301.135 490.278L480.258 166.12ZM284.153 506.92L284.158 506.92C292.697 505.527 299.254 498.834 301.135 490.279L284.153 506.92ZM284.153 506.92C270.435 509.207 256.317 510.4 241.9 510.4C227.483 510.4 213.365 509.207 199.646 506.92L199.641 506.92M284.153 506.92L199.641 506.92M199.641 506.92C191.103 505.527 184.546 498.834 182.665 490.279L199.641 506.92ZM199.749 5.07918L199.741 5.08045C191.203 6.47253 184.646 13.1656 182.765 21.7208L199.749 5.07918ZM199.749 5.07918L199.757 5.07782M199.749 5.07918L199.757 5.07782M199.757 5.07782C213.469 2.69314 227.583 1.5 242 1.5C256.417 1.5 270.535 2.69313 284.253 4.9796L284.259 4.98045M199.757 5.07782L284.259 4.98045M284.259 4.98045C292.797 6.37253 299.354 13.0656 301.235 21.6208L284.259 4.98045ZM124.243 406.671L68.6451 424.471L182.665 490.278L170.165 433.179L169.997 432.412L169.271 432.113C153.596 425.664 138.911 417.132 125.614 406.911L124.991 406.432L124.243 406.671ZM68.6425 424.471C60.379 427.1 51.233 424.735 45.7541 418.142C37.7035 408.402 30.3499 398.067 23.7918 387.138C23.7899 387.135 23.788 387.131 23.7861 387.128L19.1117 379.073C19.1093 379.068 19.107 379.064 19.1047 379.06C13.0427 368.127 7.77783 356.801 3.40766 344.982C0.432895 336.895 2.92964 327.832 9.40244 322.016L9.40939 322.009L52.7094 282.609L53.2889 282.082L53.1872 281.305C52.095 272.965 51.4999 264.53 51.4999 256C51.4999 247.47 52.095 239.035 53.1869 230.797L53.29 230.019L52.7094 229.491L9.40941 190.091L9.40242 190.084C2.93006 184.269 0.433223 175.207 3.40707 167.119C7.77731 155.3 13.0423 143.974 19.1045 133.04L23.7861 124.972C23.788 124.969 23.7898 124.966 23.7917 124.962C30.3503 114.032 37.7046 103.697 45.7561 93.9556L45.7601 93.9507C51.2314 87.2738 60.3694 84.9962 68.6451 87.6294L68.6456 87.6296L124.346 105.33L125.093 105.567L125.714 105.089C139.011 94.8684 153.696 86.3356 169.371 79.8872L170.097 79.5883L170.265 78.8208L182.765 21.722L68.6425 424.471ZM242 337.5C263.615 337.5 284.345 328.913 299.629 313.629C314.913 298.345 323.5 277.615 323.5 256C323.5 234.385 314.913 213.655 299.629 198.371C284.345 183.087 263.615 174.5 242 174.5C220.385 174.5 199.655 183.087 184.371 198.371C169.086 213.655 160.5 234.385 160.5 256C160.5 277.615 169.086 298.345 184.371 313.629C199.655 328.913 220.385 337.5 242 337.5Z" stroke="black" stroke-width="3"/>
</svg>
